<svg xmlns="http://www.w3.org/2000/svg" width="920" height="560" viewBox="0 0 920 560" role="img" aria-label="Resume placeholder">
  <defs>
    <filter id="shadow" x="-20%" y="-20%" width="140%" height="140%">
      <feDropShadow dx="0" dy="8" stdDeviation="12" flood-color="#000" flood-opacity="0.12"/>
    </filter>
    <linearGradient id="hl" x1="0" x2="1" y1="0" y2="0">
      <stop offset="0" stop-color="#D1FAE5"/>
      <stop offset="1" stop-color="#BBF7D0"/>
    </linearGradient>
  </defs>
  <rect x="40" y="40" width="840" height="480" rx="12" fill="#fff" stroke="#E5E7EB" filter="url(#shadow)"/>
  <rect x="72" y="88" width="180" height="14" rx="7" fill="#E5E7EB"/>
  <rect x="72" y="120" width="140" height="10" rx="5" fill="#E5E7EB"/>
  <rect x="72" y="160" width="776" height="10" rx="5" fill="#E5E7EB"/>
  <rect x="72" y="180" width="720" height="10" rx="5" fill="#E5E7EB"/>
  <rect x="72" y="200" width="760" height="10" rx="5" fill="#E5E7EB"/>
  <rect x="72" y="246" width="760" height="20" rx="6" fill="url(#hl)"/>
  <rect x="72" y="286" width="760" height="10" rx="5" fill="#E5E7EB"/>
  <rect x="72" y="306" width="720" height="10" rx="5" fill="#E5E7EB"/>
  <rect x="72" y="326" width="760" height="10" rx="5" fill="#E5E7EB"/>
  <rect x="72" y="366" width="760" height="10" rx="5" fill="#E5E7EB"/>
  <rect x="72" y="386" width="720" height="10" rx="5" fill="#E5E7EB"/>
  <rect x="72" y="406" width="760" height="10" rx="5" fill="#E5E7EB"/>
</svg>


