<svg xmlns="http://www.w3.org/2000/svg" width="920" height="560" viewBox="0 0 920 560" role="img" aria-label="Stack to candidate illustration">
  <defs>
    <filter id="s" x="-20%" y="-20%" width="140%" height="140%">
      <feDropShadow dx="0" dy="8" stdDeviation="12" flood-color="#000" flood-opacity="0.12"/>
    </filter>
    <linearGradient id="g" x1="0" x2="1" y1="0" y2="0">
      <stop offset="0" stop-color="#A7F3D0"/>
      <stop offset="1" stop-color="#6EE7B7"/>
    </linearGradient>
  </defs>
  <rect x="120" y="180" width="120" height="160" rx="12" fill="#fff" stroke="#E5E7EB" filter="url(#s)"/>
  <rect x="132" y="196" width="96" height="10" rx="5" fill="#E5E7EB"/>
  <rect x="132" y="214" width="96" height="10" rx="5" fill="#E5E7EB"/>
  <rect x="132" y="232" width="96" height="10" rx="5" fill="#E5E7EB"/>
  <rect x="420" y="250" width="60" height="10" rx="5" fill="#D1FAE5"/>
  <rect x="500" y="250" width="60" height="10" rx="5" fill="#D1FAE5"/>
  <rect x="580" y="250" width="60" height="10" rx="5" fill="#D1FAE5"/>
  <rect x="640" y="200" width="160" height="160" rx="16" fill="#fff" stroke="#E5E7EB" filter="url(#s)"/>
  <circle cx="680" cy="236" r="18" fill="#F3F4F6"/>
  <rect x="712" y="228" width="68" height="14" rx="7" fill="#111827" opacity="0.8"/>
  <rect x="660" y="270" width="120" height="24" rx="12" fill="url(#g)"/>
  <rect x="660" y="304" width="120" height="24" rx="12" fill="url(#g)"/>
  <rect x="660" y="338" width="120" height="24" rx="12" fill="url(#g)"/>
  <rect x="660" y="374" width="120" height="24" rx="12" fill="#D1FAE5"/>
</svg>


